<?xml version="1.0" encoding="utf-8"?>
<!-- Generator: Adobe Illustrator 22.0.1, SVG Export Plug-In . SVG Version: 6.00 Build 0)  -->
<svg version="1.1" id="Слой_1" xmlns="http://www.w3.org/2000/svg" xmlns:xlink="http://www.w3.org/1999/xlink" x="0px" y="0px"
	 viewBox="0 0 106.7 98" style="enable-background:new 0 0 106.7 98;" xml:space="preserve">
<g>
	<path d="M17.6,40.6h23.3c0.8,0,1.5-0.7,1.5-1.5s-0.7-1.5-1.5-1.5H17.6c-0.8,0-1.5,0.7-1.5,1.5C16.1,39.9,16.8,40.6,17.6,40.6z"/>
	<path d="M64.1,48.3H17.6c-0.8,0-1.5,0.7-1.5,1.5s0.7,1.5,1.5,1.5h46.5c0.8,0,1.5-0.7,1.5-1.5S65,48.3,64.1,48.3z"/>
	<path d="M64.1,59.1H17.6c-0.8,0-1.5,0.7-1.5,1.5c0,0.8,0.7,1.5,1.5,1.5h46.5c0.8,0,1.5-0.7,1.5-1.5C65.6,59.7,65,59.1,64.1,59.1z"
		/>
	<path d="M96.5,0.1L96.5,0.1L35.4,0c-5.7,0-10.3,4.6-10.3,10.3v9.5H10.3C4.6,19.8,0,24.4,0,30.1V68c0,5.7,4.6,10.3,10.3,10.3h11.2
		v18.2c0,0.6,0.4,1.2,1,1.4C22.7,98,22.9,98,23,98c0.4,0,0.8-0.2,1.1-0.5l17.5-19.2h0.1l29.8-0.1c5.7,0,10.3-4.6,10.3-10.3v-1
		l9.9,10.9c0.3,0.3,0.7,0.5,1.1,0.5c0.2,0,0.3,0,0.5-0.1c0.6-0.2,0.9-0.8,0.9-1.4V58.6h2.2c5.7,0,10.3-4.6,10.3-10.3V10.4
		C106.8,4.8,102.2,0.1,96.5,0.1z M78.8,67.9c0,4-3.3,7.3-7.3,7.3l-30.6,0.1c-0.4,0-0.8,0.2-1.1,0.5L24.4,92.6V76.8
		c0-0.8-0.7-1.5-1.5-1.5H10.3C6.3,75.3,3,72,3,68V30.1c0-4,3.3-7.3,7.3-7.3h16.2l44.9-0.1c4,0,7.3,3.3,7.3,7.3L78.8,67.9L78.8,67.9z
		 M103.8,48.6L103.8,48.6c-0.2,3.9-3.4,7-7.3,7h-3.7c-0.8,0-1.5,0.7-1.5,1.5V73l-9.6-10.5V30c0-5.7-4.6-10.3-10.3-10.3L28,19.8v-9.5
		c0-4,3.3-7.3,7.3-7.3l61.1,0.1c4.1,0,7.3,3.3,7.3,7.3L103.8,48.6L103.8,48.6z"/>
	<path d="M46.8,40.6h2c0.8,0,1.5-0.7,1.5-1.5s-0.7-1.5-1.5-1.5h-2c-0.8,0-1.5,0.7-1.5,1.5C45.3,39.9,46,40.6,46.8,40.6z"/>
	<path d="M54.4,40.6h9.7c0.8,0,1.5-0.7,1.5-1.5s-0.7-1.5-1.5-1.5h-9.7c-0.8,0-1.5,0.7-1.5,1.5C52.9,39.9,53.6,40.6,54.4,40.6z"/>
</g>
</svg>
