<?xml version="1.0" encoding="utf-8"?>
<!-- Generator: Adobe Illustrator 22.0.1, SVG Export Plug-In . SVG Version: 6.00 Build 0)  -->
<svg version="1.1" id="Слой_1" xmlns="http://www.w3.org/2000/svg" xmlns:xlink="http://www.w3.org/1999/xlink" x="0px" y="0px"
	 viewBox="0 0 99 99.1" style="enable-background:new 0 0 99 99.1;" xml:space="preserve">
<g>
	<path d="M96.5,34.2L96.5,34.2L64.8,2.5C63.2,0.9,61,0,58.7,0c-2.3,0-4.5,0.9-6.1,2.5L2.5,52.7C0.9,54.3,0,56.5,0,58.8
		s0.9,4.5,2.5,6.1l31,31h-4.8c-0.9,0-1.6,0.7-1.6,1.6s0.7,1.6,1.6,1.6h11.6h30.1c0.9,0,1.6-0.7,1.6-1.6s-0.7-1.6-1.6-1.6H47.1
		l49.5-49.5C99.8,43,99.8,37.5,96.5,34.2z M4.8,62.6c-1-1-1.6-2.4-1.6-3.8S3.8,56,4.8,55L54.9,4.8c1-1,2.4-1.6,3.8-1.6
		s2.8,0.6,3.8,1.6l2.8,2.8L61.9,11c-0.1,0-0.1,0.1-0.2,0.2l-0.9,0.9c-0.1,0.1-0.1,0.1-0.1,0.2L7.5,65.4L4.8,62.6z M67.6,9.8l6.6,6.6
		L20.9,69.7l-0.1,0.1l0,0l-0.9,0.9l-0.1,0.1l-3.4,3.4l-6.6-6.6L67.6,9.8z M94.2,44.1L44.1,94.2c-1,1-2.4,1.6-3.8,1.6
		c-1.5,0-2.8-0.6-3.8-1.6L18.6,76.5l57.8-57.8l17.8,17.8C96.3,38.5,96.3,42,94.2,44.1z"/>
	<path d="M50.5,60c-0.3-0.3-0.7-0.5-1.1-0.5s-0.8,0.2-1.1,0.5L31.8,76.4c-0.6,0.6-0.6,1.6,0,2.3c0.3,0.3,0.7,0.5,1.1,0.5
		s0.8-0.2,1.1-0.5l16.4-16.4C51.1,61.6,51.1,60.6,50.5,60z"/>
	<path d="M44.4,75.6L44.4,75.6l-6.7,6.7c-0.6,0.6-0.6,1.6,0,2.3c0.3,0.3,0.7,0.5,1.1,0.5s0.8-0.2,1.1-0.5l6.7-6.7
		c0.3-0.3,0.5-0.7,0.5-1.1s-0.2-0.8-0.5-1.1C46.1,74.9,45.1,74.9,44.4,75.6z"/>
	<path d="M51.8,68.9L51.8,68.9c-0.4,0-0.8,0.2-1.1,0.5l-0.9,0.9c-0.6,0.6-0.6,1.6,0,2.3c0.3,0.3,0.7,0.5,1.1,0.5s0.8-0.2,1.1-0.5
		l0.9-0.9c0.3-0.3,0.5-0.7,0.5-1.1s-0.2-0.8-0.5-1.1C52.6,69.1,52.2,68.9,51.8,68.9z"/>
	<path d="M78.7,31.8c-0.3-0.3-0.7-0.5-1.1-0.5s-0.8,0.2-1.1,0.5l-8.8,8.8c-0.3,0.3-0.5,0.7-0.5,1.1c0,0.4,0.2,0.8,0.5,1.1l5.9,5.9
		c0.3,0.3,0.7,0.5,1.1,0.5s0.8-0.2,1.1-0.5l8.8-8.8c0.6-0.6,0.6-1.6,0-2.3L78.7,31.8z M74.6,45.4L71,41.8l6.6-6.6l3.6,3.6L74.6,45.4
		z"/>
</g>
</svg>
