<?xml version="1.0" encoding="utf-8"?>
<!-- Generator: Adobe Illustrator 22.0.1, SVG Export Plug-In . SVG Version: 6.00 Build 0)  -->
<svg version="1.1" id="Слой_1" xmlns="http://www.w3.org/2000/svg" xmlns:xlink="http://www.w3.org/1999/xlink" x="0px" y="0px"
	 viewBox="0 0 1920 50" style="enable-background:new 0 0 1920 50;" xml:space="preserve">
<style type="text/css">
	.st0{fill:#FFFFFF;}
</style>
<path class="st0" d="M1920.5,0.1c-87.3-0.4-217.1,0.4-371.3,7.6c-49.4,2.3-45.9,2.7-74.8,3.6c-192,6.5-255.2-12.8-437.9-8.8
	c-58.5,1.3-80.3,3.9-183,5.8c-23.1,0.4-75.8,1.4-135,1.3c-210.9-0.3-274.7-13.9-403-7.1c-47.2,2.5-43.3,4.6-101,7.4
	c-85.5,4.2-162.8,3-215,1.3c0,8.3,0,16.6,0,25h1921V0.1z"/>
</svg>
